<svg id="Layer_1" data-name="Layer 1" xmlns="http://www.w3.org/2000/svg" viewBox="0 0 40 40"><defs><style>.cls-2{fill:#fff}</style></defs><path d="M20 2A18 18 0 1 1 2 20 18 18 0 0 1 20 2m0-2a20 20 0 1 0 20 20A20 20 0 0 0 20 0z" fill="#fb2740"/><path class="cls-2" d="M20 9.82c3.32 0 3.71 0 5 .07a6.87 6.87 0 0 1 2.31.43 4.11 4.11 0 0 1 2.36 2.36 6.87 6.87 0 0 1 .44 2.32c.06 1.31.07 1.7.07 5s0 3.71-.07 5a6.87 6.87 0 0 1-.43 2.31 4.11 4.11 0 0 1-2.36 2.36 6.87 6.87 0 0 1-2.31.43c-1.31.06-1.7.07-5 .07s-3.71 0-5-.07a6.87 6.87 0 0 1-2.31-.43 4.11 4.11 0 0 1-2.36-2.36A6.87 6.87 0 0 1 9.89 25c-.06-1.31-.07-1.7-.07-5s0-3.71.07-5a6.87 6.87 0 0 1 .43-2.31 4.11 4.11 0 0 1 2.36-2.36A6.87 6.87 0 0 1 15 9.89c1.31-.06 1.7-.07 5-.07m0-2.24c-3.37 0-3.8 0-5.12.07a9.11 9.11 0 0 0-3 .58 6.35 6.35 0 0 0-3.63 3.63 9.11 9.11 0 0 0-.58 3c-.07 1.34-.09 1.77-.09 5.14s0 3.8.07 5.12a9.11 9.11 0 0 0 .58 3 6.35 6.35 0 0 0 3.63 3.63 9.11 9.11 0 0 0 3 .58c1.32.06 1.75.07 5.12.07s3.8 0 5.12-.07a9.11 9.11 0 0 0 3-.58 6.35 6.35 0 0 0 3.63-3.63 9.11 9.11 0 0 0 .58-3c.06-1.32.07-1.75.07-5.12s0-3.8-.07-5.12a9.11 9.11 0 0 0-.58-3 6.35 6.35 0 0 0-3.63-3.63 9.11 9.11 0 0 0-3-.58c-1.3-.07-1.73-.09-5.1-.09z"/><path class="cls-2" d="M20 13.62A6.38 6.38 0 1 0 26.38 20 6.38 6.38 0 0 0 20 13.62zm0 10.52A4.14 4.14 0 1 1 24.14 20 4.14 4.14 0 0 1 20 24.14z"/><circle class="cls-2" cx="26.63" cy="13.37" r="1.49"/></svg>