<svg data-name="Layer 1" xmlns="http://www.w3.org/2000/svg" viewBox="0 0 40 40"><path d="M20 2A18 18 0 1 1 2 20 18 18 0 0 1 20 2m0-2a20 20 0 1 0 20 20A20 20 0 0 0 20 0z" fill="#fb2740"/><path d="M30.33 14.71v.69A15.15 15.15 0 0 1 7 28.16a10.85 10.85 0 0 0 1.27.07A10.69 10.69 0 0 0 14.9 26a5.33 5.33 0 0 1-5-3.7 5.32 5.32 0 0 0 2.41-.09 5.33 5.33 0 0 1-4.27-5.22v-.07a5.29 5.29 0 0 0 2.41.67 5.33 5.33 0 0 1-1.65-7.11 15.12 15.12 0 0 0 11 5.52 5.33 5.33 0 0 1 9.08-4.86 10.68 10.68 0 0 0 3.38-1.29 5.35 5.35 0 0 1-2.34 2.95 10.63 10.63 0 0 0 3.08-.85 10.84 10.84 0 0 1-2.67 2.76z" fill="#fff"/></svg>