<svg data-name="Layer 1" xmlns="http://www.w3.org/2000/svg" viewBox="0 0 40 40"><path d="M20 2A18 18 0 1 1 2 20 18 18 0 0 1 20 2m0-2a20 20 0 1 0 20 20A20 20 0 0 0 20 0z" fill="#fb2740"/><path d="M32.61 13.69a3.3 3.3 0 0 0-2.33-2.33c-2.05-.54-10.28-.54-10.28-.54s-8.23 0-10.29.55a3.3 3.3 0 0 0-2.33 2.33 34.26 34.26 0 0 0-.54 6.3 34.26 34.26 0 0 0 .55 6.34 3.3 3.3 0 0 0 2.32 2.36c2.06.55 10.29.55 10.29.55s8.23 0 10.29-.55a3.3 3.3 0 0 0 2.33-2.33 34.26 34.26 0 0 0 .54-6.37 34.26 34.26 0 0 0-.55-6.31zM17 24v-7.9l6.84 3.9z" fill="#fff"/></svg>