<svg width="225" height="66" xmlns="http://www.w3.org/2000/svg" xmlns:xlink="http://www.w3.org/1999/xlink"><defs><path id="a" d="M.023 20.31V.03H11.23v20.28z"/><path id="c" d="M37.398 20.348H.025V.192h37.373z"/><path id="e" d="M.35 27.68h36.905V.289H.349V27.68z"/></defs><g fill="none" fill-rule="evenodd"><g transform="translate(0 39.926)"><mask id="b" fill="#fff"><use xlink:href="#a"/></mask><path d="M4.657 20.31c-1.644 0-3.774-.513-4.505-.755v-3.712h.609c.609 1.78 2.009 3.38 4.017 3.38 2.283 0 3.957-1.479 3.957-3.832C8.735 10.954 0 9.687 0 4.888 0 1.78 2.1.03 5.57.03c1.734 0 3.834.513 4.565.725v3.259h-.609c-1.004-1.63-2.1-2.927-4.109-2.927-2.1 0-3.134 1.025-3.134 2.776 0 3.923 8.948 5.311 8.948 10.442 0 3.923-3.014 6.006-6.574 6.006" fill="#101226" mask="url(#b)"/></g><path d="M20.361 47.36c-1.233 0-2.965.486-3.552.668v10.777c.557.091 1.497.091 2.525.091 2.525 0 4.257-1.882 4.257-6.193 0-4.34-1.439-5.343-3.23-5.343zm-.91 12.477c-.617 0-2.32-.06-2.642-.121v4.28c0 .486.176.73.587.88l2.084.699V66h-7.252v-.425l1.586-.607c.41-.182.587-.395.587-.88V49.15c0-.789-.03-1.305-.705-1.517l-1.468-.486v-.517l4.58-1.001v1.851c.852-.546 3.26-1.851 4.728-1.851 2.907 0 4.551 2.276 4.551 6.223 0 5.677-2.76 7.984-6.636 7.984zm15.603-.356v-.417l1.66-.567c.446-.149.7-.566.7-1.044V42.571c0-.776-.031-1.283-.765-1.491l-1.595-.478v-.507l4.977-.984v18.283c0 .477.255.954.702 1.103l1.658.567v.417h-7.337m8.153 0v-.417l1.658-.567c.447-.149.702-.566.702-1.044V42.571c0-.776-.032-1.283-.765-1.491l-1.595-.478v-.507l4.976-.984v18.283c0 .477.255.954.702 1.103l1.658.567v.417h-7.336m16.22-10.238c0-1.483-.934-2.718-2.77-2.718-2.35 0-3.193 2.13-3.374 4.817h6.144v-2.1zm-6.234 3.087s.03 0 .03.216c0 4.477 1.627 6.176 5.09 6.176 1.295 0 2.59-.464 3.493-.896v.68c-.873.895-2.56 1.79-4.638 1.79-4.517 0-6.625-2.748-6.625-7.318 0-4.755 2.41-7.348 6.204-7.348 4.125 0 5.21 2.531 5.21 5.867v.833h-8.764z" fill="#101226"/><g transform="translate(63.587 45.63)"><mask id="d" fill="#fff"><use xlink:href="#c"/></mask><path d="M16.48 13.851v-.414l1.575-.563c.455-.178.697-.563.697-1.037V4.37c0-1.69-.485-2.607-2.242-2.607-1.182 0-2.637.414-3.606.74.121.474.151 1.156.151 1.778v7.556c0 .474.243.859.697 1.037l1.546.563v.414h-7v-.414l1.575-.563c.455-.178.697-.563.697-1.037V4.37c0-1.69-.484-2.607-2.272-2.607-1.092 0-2.637.473-3.546.77v9.304c0 .474.273.889.697 1.037l1.576.563v.414h-7v-.414l1.575-.563c.425-.148.667-.563.667-1.037V3.6c0-.741-.03-1.186-.758-1.423L.025 1.673V1.17L4.752.192V1.97C5.57 1.466 8.207.192 9.328.192c1.849 0 2.758.533 3.303 1.748 1.03-.652 3.667-1.748 4.788-1.748 2.788 0 3.849 1.126 3.849 4.089v7.556c0 .474.242.859.696 1.037l1.577.563v.414H16.48M36.307 1.673c-.394.208-.637.741-.818 1.186L28.398 20.37h-2.303s2.818-6.044 3.09-6.607L24.429 2.414c-.122-.266-.273-.533-.455-.622L22.64 1.11V.725h6.364v.385l-1.546.593c-.242.09-.394.356-.394.652 0 .178.09.444.152.592l3.06 7.97c.122.268.213.594.213.8h.06c0-.206.091-.562.182-.8l2.94-7.94c.09-.207.181-.503.181-.711 0-.296-.151-.503-.394-.593l-1.394-.563V.725h5.334v.385l-1.091.563" fill="#101226" mask="url(#d)"/></g><path d="M109.215 59.481v-.3l1.365-.42c.62-.18.652-.421.652-1.172v-7.963c0-1.682-.342-2.494-2.172-2.494-1.179 0-2.761.63-3.475.872v9.555c0 .75.155 1.021.652 1.171l1.365.451v.3h-6.515v-.3l1.365-.45c.465-.15.62-.421.62-1.172v-8.624c0-.781-.03-1.202-.744-1.473l-1.241-.48v-.36l4.498-.992v1.953c.869-.631 3.103-1.953 4.654-1.953 2.606 0 3.506 1.141 3.506 4.146v7.813c0 .75.092.991.682 1.171l1.334.421v.3h-6.546" fill="#101226"/><g transform="translate(115.76 38.296)"><mask id="f" fill="#fff"><use xlink:href="#e"/></mask><path d="M9.955 8.181a21.522 21.522 0 0 0-2.06-.121c-3.697 0-5.06 2.186-5.06 5.768 0 5.253 1.969 5.92 4.12 5.92.758 0 2.334-.272 3-.424V8.18zm1.334 13.177c-.94 0-1.334-.486-1.334-1.64-.757.517-2.878 1.731-4.485 1.731-2.575 0-5.12-1.7-5.12-7.196 0-4.523 2.514-7.225 6.787-7.225.758 0 2.03.151 2.818.364V3.809c0-.789-.03-1.305-.727-1.518l-1.545-.485V1.29L12.41.288v18.004c0 .759.03 1.336.727 1.518l1.88.455v.516c-.728.243-2.82.577-3.728.577zM30.072 8.151c-1.939 0-2.848.85-2.848 3.765 0 2.55.879 3.643 2.848 3.643 1.97 0 2.849-1.093 2.849-3.643 0-2.915-.91-3.765-2.849-3.765zm3.091 13.146H27.86c-.242 0-.485-.03-.697-.06-.515.516-1.06 1.427-1.06 2.793 0 1.457 1.303 2.065 4.06 2.065 3.455 0 4.94-1.093 4.94-3.098 0-1.001-.576-1.7-1.94-1.7zm-3.757 6.407c-2.364 0-5.243-1.063-5.243-3.219 0-1.366 1.546-2.793 2.303-3.43-.879-.365-1.303-1.124-1.303-2.156 0-.698.879-1.913 1.667-2.884-1.242-.669-2.091-1.943-2.091-4.1 0-3.582 2.667-4.887 5.333-4.887.97 0 2.091.182 2.91.576.757-.85 2.182-2.216 3.09-2.216.667 0 1.183.547 1.183 1.306 0 .273-.092.607-.243.94a4.005 4.005 0 0 0-1.182-.181c-.879 0-1.727.273-2.152.577 1.03.759 1.728 2.034 1.728 3.886 0 3.674-2.576 4.736-5.334 4.736-.848 0-1.939-.122-2.666-.364-.303.576-.606 1.427-.606 1.943 0 .637.424.971 1.303.971h5.09c2.304 0 3.819.85 3.819 2.854 0 4.039-4.394 5.648-7.606 5.648z" fill="#101226" mask="url(#f)"/></g><path d="M162.452 59.481v-.417l1.601-.567c.462-.179.709-.566.709-1.044v-7.575c0-1.521-.37-2.535-2.033-2.535-1.54 0-2.895.477-3.85.746v9.364c0 .478.247.865.709 1.044l1.601.567v.417h-7.113v-.417l1.601-.567c.431-.149.678-.566.678-1.044V42.63c0-.775-.031-1.342-.74-1.55l-1.539-.478v-.507l4.804-.984v8.41c1.14-.626 3.449-1.789 4.865-1.789 2.74 0 3.542 1.461 3.542 4.116v7.605c0 .478.246.865.708 1.044l1.57.567v.417h-7.113m15.996-10.238c0-1.483-.933-2.718-2.77-2.718-2.349 0-3.192 2.13-3.373 4.817h6.143v-2.1zm-6.233 3.087s.03 0 .03.216c0 4.477 1.626 6.176 5.09 6.176 1.294 0 2.59-.464 3.493-.896v.68c-.874.895-2.56 1.79-4.638 1.79-4.517 0-6.625-2.748-6.625-7.318 0-4.755 2.41-7.348 6.203-7.348 4.126 0 5.21 2.531 5.21 5.867v.833h-8.763zm20.005-5.316a21.518 21.518 0 0 0-2.062-.122c-3.699 0-5.063 2.188-5.063 5.775 0 5.259 1.97 5.927 4.123 5.927.758 0 2.334-.273 3.001-.425V47.014zm1.333 13.191c-.94 0-1.334-.486-1.334-1.641-.758.517-2.88 1.732-4.487 1.732-2.577 0-5.123-1.702-5.123-7.204 0-4.528 2.516-7.233 6.79-7.233.759 0 2.032.152 2.82.364v-3.586c0-.79-.03-1.307-.727-1.52l-1.547-.486v-.517l4.73-1.003v18.024c0 .76.03 1.338.728 1.52l1.88.456v.517c-.728.243-2.82.577-3.73.577zm13.428-10.962c0-1.483-.933-2.718-2.77-2.718-2.349 0-3.192 2.13-3.373 4.817h6.143v-2.1zm-6.233 3.087s.03 0 .03.216c0 4.477 1.626 6.176 5.09 6.176 1.294 0 2.59-.464 3.492-.896v.68c-.873.895-2.56 1.79-4.637 1.79-4.517 0-6.625-2.748-6.625-7.318 0-4.755 2.409-7.348 6.203-7.348 4.126 0 5.21 2.531 5.21 5.867v.833h-8.763zm17.706 7.151v-.3l1.365-.42c.62-.18.652-.421.652-1.172v-7.963c0-1.682-.341-2.494-2.172-2.494-1.179 0-2.76.63-3.474.872v9.555c0 .75.155 1.021.651 1.171l1.365.451v.3h-6.515v-.3l1.365-.45c.466-.15.62-.421.62-1.172v-8.624c0-.781-.03-1.202-.744-1.473l-1.24-.48v-.36l4.498-.992v1.953c.868-.631 3.102-1.953 4.653-1.953 2.606 0 3.506 1.141 3.506 4.146v7.813c0 .75.093.991.682 1.171l1.334.421v.3h-6.546m-190.737 0v-.42l1.66-.571c.446-.15.701-.57.701-1.052v-8.323c0-.78-.032-1.262-.766-1.502l-1.595-.511v-.45l4.977-1.022v11.808c0 .481.255.902.701 1.052l1.66.57v.421h-7.338m1.631-18.741a1.63 1.63 0 1 1 3.26.002 1.63 1.63 0 0 1-3.26-.001m102.717 18.74v-.42l1.659-.571c.446-.15.702-.57.702-1.052v-8.323c0-.78-.032-1.262-.766-1.502l-1.595-.511v-.45l4.977-1.022v11.808c0 .481.255.902.701 1.052l1.66.57v.421h-7.338m1.631-18.741a1.63 1.63 0 1 1 3.26.002 1.63 1.63 0 0 1-3.26-.001m-36.11-14.667h1.738c.044-.864.344-2.441-.138-3.343-.542-1.015-1.781-1.96-2.93-3.065-.455-.477-1.512-1.225-1.512-2.553 0-1.76 1.286-2.233 2.162-2.265.309-.012.62.03.92.123.134-.58.374-1.181.736-1.672a4.625 4.625 0 0 0-1.614-.261c-1.67.036-4.013 1.196-4.013 4.075 0 1.903 1.188 3.036 2.268 4.132 1.216 1.235 2.203 2.406 2.383 4.83m.24 3.258h25.272v-1.63H97.826zm0 3.26h25.272v-1.63H97.826zm5.488-6.519h1.993c.18-1.532.77-2.856.403-3.986-.416-1.278-2.078-2.635-3.056-3.716-.802-.885-1.304-1.668-1.304-2.77 0-1.221.968-2.34 2.428-2.34 1.656 0 2.631 1.556 4.646 1.556v-1.844c-1.181-.114-2.331-1.567-4.646-1.567-1.236 0-2.353.452-3.147 1.275-.757.786-1.174 1.85-1.174 2.995 0 1.749.848 2.827 1.67 3.87 1.06 1.345 2.25 2.93 2.187 6.527m19.889-11.226c.875.032 2.162.504 2.162 2.265 0 1.328-1.057 2.076-1.511 2.553-1.15 1.106-2.39 2.05-2.932 3.065-.481.902-.181 2.479-.137 3.343h1.738c.18-2.423 1.166-3.594 2.382-4.829 1.08-1.096 2.269-2.229 2.269-4.132 0-2.88-2.344-4.04-4.014-4.075a4.63 4.63 0 0 0-1.614.261c.362.491.602 1.092.737 1.672.3-.092.611-.135.92-.123" fill="#101226"/><path d="M112.5 14.818c2.015 0 2.99-1.556 4.646-1.556 1.46 0 2.428 1.119 2.428 2.34 0 1.102-.502 1.885-1.304 2.77-.978 1.081-2.64 2.438-3.056 3.716-.366 1.13.224 2.454.403 3.986h1.993c-.062-3.596 1.127-5.182 2.187-6.528.823-1.042 1.67-2.12 1.67-3.869 0-1.146-.416-2.21-1.174-2.995-.794-.823-1.912-1.275-3.147-1.275-2.315 0-3.465 1.453-4.646 1.567v1.844m-3.091-3.411v5.22l-.001-.006c0 3.325-.984 4.141-.984 5.256 0 1.388.638 1.848.982 3.382l.003-.004v.004h2.106v-.005l.003.005c.345-1.534.982-1.994.982-3.382 0-1.115-.983-1.93-.983-5.256l-.002.012v-5.226h-2.106m1.054-4.415c.574 0 1.04.45 1.04 1.001 0 .552-.466 1-1.04 1-.575 0-1.042-.448-1.042-1s.467-1 1.042-1zm-.88-1.446c-1.06.351-1.828 1.308-1.828 2.447 0 1.436 1.213 2.6 2.708 2.6 1.493 0 2.706-1.164 2.706-2.6 0-1.139-.768-2.096-1.83-2.448V3.648h1.976V1.962h-1.975V0h-1.756v1.962h-1.975v1.686h1.975v1.898z" fill="#101226"/></g></svg>