<svg id="Layer_1" xmlns="http://www.w3.org/2000/svg" viewBox="0 0 643.8 263.6"><style>.st0,.st1{fill:none;stroke:#ec1c24;stroke-width:4;stroke-miterlimit:10}.st1{stroke:#fff}</style><path class="st0" d="M97.8 31c0-8.3 2.5-12.4 10.2-12.4s10.2 4 10.2 12.4v42.6h19.1v-43C137.3 14.8 128 2 108 2S78.6 14.8 78.6 30.6v43h19.1l.1-42.6zm20.4 57.7v13.9c0 8.3-2.5 12.3-10.2 12.3s-10.2-4-10.2-12.4V88.7H78.6v14.4c0 15.8 9.3 28.6 29.3 28.6s29.3-12.8 29.3-28.6V88.7h-19zm77.2 0v13.9c0 8.3-2.5 12.3-10.2 12.3s-10.2-4-10.2-12.4V88.7h-19.1v14.4c0 15.8 9.3 28.6 29.3 28.6s29.3-12.8 29.3-28.6V88.7h-19.1zM175 31c0-8.3 2.5-12.4 10.2-12.4s10.2 4 10.2 12.4v42.6h19.1v-43c0-15.8-9.3-28.6-29.3-28.6s-29.3 12.8-29.3 28.5v43H175V31zm58.1 57.7h16.7v41.4h-16.7zm34.3 41.4h9.3l8.2-41.4h-25.7zM311.8 3.5h-25.1l-13.6 65.2h-.3L259.2 3.5H234v70.1h16.7V27.9h.3l9.1 45.7h25.7l9.1-45.7h.3v45.7h16.6zm-17.5 85.2H311v41.4h-16.7zm37-85.2h19.1v70.1h-19.1zm0 85.2h19.1v41.4h-19.1zm39.6 0h17.3v41.4h-17.3zm27.5 0l14.5 41.4h16.7V88.7zm31.2-85.2h-17.3V64h-.3L388.7 3.5h-17.8v70.1h17.3V45.4h.3l9.9 28.2h31.2zm37.7 27.4c0-9.4 3.9-12.2 8.5-12.2 7.6 0 11 4.3 11 21H505v-7.1C505 15.9 495.4 2 476.3 2c-18.8 0-28.1 12.8-28.1 28.6v43h19.2l-.1-42.7zm10.6 42.7v15.1h8.8v10.8c0 11.1-2.8 15.4-10.5 15.4-6.6 0-9-4.6-9-11.7V88.7h-19.1v14.4c0 17.8 10.5 28.6 25.6 28.6 9 0 13.6-3.1 19.3-9.9l3.5 8.3h9.3V73.6h-27.9z"/><path class="st1" d="M30.9 218.6h9.7v10.8c0 11.1-2.8 15.4-10.5 15.4-6.6 0-9-4.6-9-11.7v-57.2c0-9.4 3.9-12.2 8.5-12.2 7.6 0 11 4.3 11 21h18.2v-7.1c0-16.7-9.6-30.6-28.7-30.6C11.3 147 2 159.8 2 175.6V233c0 17.8 10.5 28.6 25.6 28.6 9 0 13.6-3.1 19.3-9.9l3.6 8.3h9.3v-56.5H30.9v15.1zm86.1-70H93.2l-12.9 70-7.6 41.4h18.5l3.4-24.7h21L119 260h18.5l-7.6-41.4-12.9-70zm-12.1 22.2h.3l7.6 47.8H97.4l7.5-47.8zm84.1 42.9h-.3l-13.6-65.1h-25.2v111.5h16.7V173h.3l9 45.6 8.3 41.5h9.2l8.3-41.5 9-45.6h.3v87.1h16.7V148.6h-25.2zm73.7 4.9v-8h24.7V194h-24.7v-28.7h32.1v-16.7h-51.3v111.5H297v-16.7h-34.3zm100.6 0c-9.4-19.4-35.6-28.4-35.6-44 0-7 3.4-11 9.6-11 4.3 0 9.4 2.8 10.2 12.4l18.2-2c-1.7-15.8-11-27-26.5-27-18.8 0-29.6 10-29.6 27.8 0 22.7 19.7 32.3 31 43.8 4.6 4.7 7.9 9.7 7.9 16.1 0 6.6-4.5 10.2-11.1 10.2-6.2 0-10.6-5.6-11.4-16.8l-18.2 2.6c.8 16.7 11 30.9 28.7 30.9 17.9 0 30.3-10.2 30.3-28.6-.2-5-1.4-9.9-3.5-14.4z"/><path class="st0" d="M524.3 73.6h117.4v15.1H524.3z"/><path class="st1" d="M380 245h18.1v15.1H380zm71.5-68c0-9.4-4.3-13.4-9.2-13.4-7.7 0-10.2 4-10.2 12.3v56.3c0 8.3 2.5 12.3 10.2 12.3 6.9 0 9.2-4 9.2-11.2v-13.4h19.1v12.8c0 15.7-9.2 28.5-28.3 28.5-20 0-29.2-12.8-29.2-28.5v-57.2c0-15.7 9.2-28.5 29.2-28.5 19.1 0 28.3 13.9 28.3 30.5v8.2h-19.1V177zm36.8-1.5c0-15.7 9.2-28.5 29.2-28.5s29.2 12.8 29.2 28.5v57.2c0 15.7-9.2 28.5-29.2 28.5s-29.2-12.8-29.2-28.5v-57.2zm19.1 56.8c0 8.3 2.5 12.3 10.2 12.3 7.7 0 10.2-4 10.2-12.3V176c0-8.3-2.5-12.3-10.2-12.3s-10.2 4-10.2 12.3v56.3zM641.8 149v111.1h-16.6v-86.8h-.3l-17.2 86.8h-9.2l-17.2-86.8h-.3v86.8h-16.6V149h25.1l13.5 64.9h.3l13.5-64.9h25z"/><path class="st0" d="M27.3 65c8.1 0 12.5 2.9 14.5 8.6h19.4c-2-8.7-7.1-13.9-14.5-17.2C56 52.7 60 42.7 60 33.1c0-19-9.1-29.5-29.6-29.5H2v70h19.1V65h6.2zm1.1-45.7c8.5 0 12.5 5.4 12.5 15.8 0 9.3-5.6 14.2-12.8 14.2h-6.9v-30h7.2zm33.8 69.4H43.1v8.6c0 11.3-3.7 17.1-13.9 17.1h-8V88.7H2v41.4h30.3c21.8 0 30-13.9 30-32.3v-.7l-.1-8.4z"/></svg>